<svg
        version="1.1"
        xmlns="http://www.w3.org/2000/svg"
        x="0px"
        y="0px"
        viewBox="0 0 500 500"
        style="enable-background: new 0 0 500 500"
        xml:space="preserve"
        class="shrink-0 h-10"
>
  <g>
    <path
            d="M228.4,181.2c59.6,0,107.8,48.3,107.8,107.8c0,59.6-48.3,107.8-107.8,107.8c-59.6,0-107.8-48.3-107.8-107.8
          C120.6,229.5,168.8,181.2,228.4,181.2 M228.4,78c-116.5,0-211,94.5-211,211c0,116.5,94.5,211,211,211c116.5,0,211-94.5,211-211
          c0-25.2-4.4-49.5-12.6-71.9c-5.2-14.4-16.9-24.2-32-26.9c-45.1-7.9-82-39.7-97.1-81.9c-5.2-14.5-16.8-24.3-31.9-27
          C253.7,79.2,241.2,78,228.4,78z"
            fill="currentColor"
    />
      <path
              d="M416.8,0c36.3,0,65.8,29.5,65.8,65.8c0,36.3-29.5,65.8-65.8,65.8c-36.3,0-65.8-29.5-65.8-65.8
          C351,29.5,380.5,0,416.8,0"
              fill="currentColor"
      />
  </g>
</svg>