<svg width="24" height="24" viewBox="0 0 24 24" fill="none" xmlns="http://www.w3.org/2000/svg">
<path d="M12 5L10.8961 3.45459C10.4851 2.87911 10.2795 2.59137 10.4093 2.32411C10.5391 2.05684 10.8689 2.04153 11.5286 2.01092C11.6848 2.00367 11.842 2 12 2C17.5228 2 22 6.47715 22 12C22 17.5228 17.5228 22 12 22C6.47715 22 2 17.5228 2 12C2 8.72836 3.57111 5.82368 6 3.99927" stroke="#141B34" stroke-width="1.5" stroke-linecap="round" stroke-linejoin="round"/>
<path d="M8 11.5V13.5C8 15.1499 8 15.9749 8.51256 16.4874C9.02513 17 9.85008 17 11.5 17H12.5C14.1499 17 14.9749 17 15.4874 16.4874C16 15.9749 16 15.1499 16 13.5V11.5" stroke="#141B34" stroke-width="1.5" stroke-linecap="round" stroke-linejoin="round"/>
<path d="M7.5 10.5C7.5 10.1262 7.5 9.93923 7.60048 9.8C7.66631 9.70879 7.76099 9.63305 7.875 9.58038C8.04904 9.5 8.28269 9.5 8.75 9.5H15.25C15.7173 9.5 15.951 9.5 16.125 9.58038C16.239 9.63305 16.3337 9.70879 16.3995 9.8C16.5 9.93923 16.5 10.1262 16.5 10.5C16.5 10.8738 16.5 11.0608 16.3995 11.2C16.3337 11.2912 16.239 11.367 16.125 11.4196C15.951 11.5 15.7173 11.5 15.25 11.5H8.75C8.28269 11.5 8.04904 11.5 7.875 11.4196C7.76099 11.367 7.66631 11.2912 7.60048 11.2C7.5 11.0608 7.5 10.8738 7.5 10.5Z" stroke="#141B34" stroke-width="1.5" stroke-linejoin="round"/>
</svg>
